<svg width="33" height="33" viewBox="0 0 33 33" fill="none" xmlns="http://www.w3.org/2000/svg" fill-rule="evenodd" clip-rule="evenodd">
<path id="mark" d="M24.3187 12.8506L13.2371 21.0407L29.1114 5.07631V5.09055L33.6964 0.5C33.6139 0.616757 33.5315 0.730667 33.449 0.844576C29.9647 5.64871 28.2637 7.99809 29.629 13.8758L29.6205 13.8673C30.562 17.8683 29.5551 22.3051 26.304 25.5601C22.2053 29.6665 15.6463 30.5806 10.2449 26.8843L14.0108 25.1386C17.4581 26.4941 21.2297 25.899 23.9404 23.1851C26.651 20.4712 27.2597 16.5185 25.8973 13.2294C25.6384 12.6057 24.8619 12.4491 24.3187 12.8506Z" fill="currentColor"/>
<path id="mark" d="M11.0498 10.2763C7.74186 13.5853 7.07344 19.3235 10.9503 23.0313L10.9474 23.0341L0.363647 32.5C1.02597 31.5868 1.84612 30.7235 2.66565 29.8609L2.66566 29.8609L2.69885 29.826L2.70569 29.8188C5.04711 27.3551 7.36787 24.9131 5.94992 21.4622C4.04991 16.8403 5.15635 11.4239 8.6748 7.90126C12.3326 4.24192 17.7198 3.31926 22.2195 5.17313C23.215 5.54334 24.0826 6.07017 24.7595 6.55998L21.0022 8.2971C17.5036 6.82767 13.4959 7.82722 11.0498 10.2763Z" fill="currentColor"/>
</svg>

