<svg width="149" height="33" viewBox="0 0 149 33" fill="none" xmlns="http://www.w3.org/2000/svg" fill-rule="evenodd" clip-rule="evenodd">
<path id="mark" d="M24.3187 12.8506L13.2371 21.0407L29.1114 5.07631V5.09055L33.6964 0.5C33.6139 0.616757 33.5315 0.730667 33.449 0.844576C29.9647 5.64871 28.2637 7.99809 29.629 13.8758L29.6205 13.8673C30.562 17.8683 29.5551 22.3051 26.304 25.5601C22.2053 29.6665 15.6463 30.5806 10.2449 26.8843L14.0108 25.1386C17.4581 26.4941 21.2297 25.899 23.9404 23.1851C26.651 20.4712 27.2597 16.5185 25.8973 13.2294C25.6384 12.6057 24.8619 12.4491 24.3187 12.8506Z" fill="currentColor"/>
<path id="mark" d="M11.0498 10.2763C7.74186 13.5853 7.07344 19.3235 10.9503 23.0313L10.9474 23.0341L0.363647 32.5C1.02597 31.5868 1.84612 30.7235 2.66565 29.8609L2.66566 29.8609L2.69885 29.826L2.70569 29.8188C5.04711 27.3551 7.36787 24.9131 5.94992 21.4622C4.04991 16.8403 5.15635 11.4239 8.6748 7.90126C12.3326 4.24192 17.7198 3.31926 22.2195 5.17313C23.215 5.54334 24.0826 6.07017 24.7595 6.55998L21.0022 8.2971C17.5036 6.82767 13.4959 7.82722 11.0498 10.2763Z" fill="currentColor"/>
<path d="M37.8333 19.3306C38.0527 22.2268 40.2688 24.5525 44.5254 24.5525C48.2114 24.5525 50.8663 22.7753 50.8663 19.8352C50.8663 17.2462 49.111 16.0394 46.0612 15.3592L43.6477 14.7888C41.8705 14.3938 40.9051 13.7575 40.9051 12.6166C40.9051 11.2124 42.2435 10.3128 44.1962 10.3128C46.0832 10.3128 47.4655 11.1466 47.6849 13.2748H50.3836C50.2081 10.1373 47.7726 8.09674 44.1962 8.09674C40.6637 8.09674 38.2502 10.0056 38.2502 12.7921C38.2502 15.7761 40.7954 16.6976 43.0772 17.2242L45.4688 17.7508C47.3777 18.1896 48.1456 18.9795 48.1456 20.0107C48.1456 21.6124 46.5439 22.3146 44.5254 22.3146C42.3971 22.3146 40.9051 21.5027 40.576 19.3306H37.8333Z" fill="currentColor"/>
<path d="M56.9253 24.399C54.0071 24.399 53.0198 22.6876 53.0198 20.274V12.7921H55.4991V20.1424C55.4991 21.4369 56.2451 22.2926 57.5616 22.2926C59.5582 22.2926 60.5456 20.8006 60.5456 18.8917V12.7921H63.0249V24.1357H60.6553V22.2048H60.6114C59.8215 23.7188 58.5709 24.399 56.9253 24.399Z" fill="currentColor"/>
<path d="M65.3942 12.7921V28.48H67.8736V22.5998H67.9394C68.7293 23.9163 70.2651 24.399 71.428 24.399C74.7631 24.399 76.5403 21.6783 76.5403 18.4529C76.5403 15.2276 74.7631 12.5069 71.428 12.5069C70.2651 12.5069 68.7293 12.9896 67.9394 14.3061H67.8736V12.7921H65.3942ZM70.8795 22.3365C68.7073 22.3365 67.8077 20.4057 67.8077 18.4529C67.8077 16.4343 68.7073 14.5474 70.8795 14.5474C73.0955 14.5474 73.9512 16.4343 73.9512 18.4529C73.9512 20.4057 73.0955 22.3365 70.8795 22.3365Z" fill="currentColor"/>
<path d="M83.4145 24.399C79.8601 24.399 77.8415 21.8977 77.8415 18.4529C77.8415 14.9204 79.8601 12.5069 83.217 12.5069C86.4863 12.5069 88.4829 14.7229 88.5926 18.1458L87.5175 19.155H80.3647C80.5622 21.1736 81.6373 22.3804 83.4145 22.3804C84.709 22.3804 85.6306 21.7002 86.0913 20.4496H88.5487C87.9782 23.0605 86.0474 24.399 83.4145 24.399ZM80.4305 17.3778H86.1352C85.8719 15.447 84.7529 14.4597 83.217 14.4597C81.8128 14.4597 80.7377 15.5348 80.4305 17.3778Z" fill="currentColor"/>
<path d="M90.4185 14.5913V24.1357H92.8979V14.8985H96.935V12.7921H92.5029L90.4185 14.5913Z" fill="currentColor"/>
<path d="M106.565 24.4252C101.684 24.4252 98.7743 20.9105 98.7743 16.1179C98.7743 11.2801 101.788 7.67999 106.66 7.67999C110.468 7.67999 113.255 9.61507 113.912 13.2152H110.989C110.558 11.1677 108.836 10.0201 106.66 10.0201C103.148 10.0201 101.607 13.0352 101.607 16.1179C101.607 19.2005 103.148 22.193 106.66 22.193C110.014 22.193 111.487 19.7854 111.601 17.7829H106.547V15.453H114.184L114.172 16.6712C114.172 21.1975 112.311 24.4252 106.565 24.4252Z" fill="currentColor"/>
<path d="M116.359 14.34V24.1279H118.919V14.6551H123.089V12.495H118.511L116.359 14.34ZM129.354 24.3976C125.547 24.3976 123.485 21.72 123.485 18.2999C123.485 14.8572 125.547 12.2021 129.354 12.2021C133.184 12.2021 135.223 14.8572 135.223 18.2999C135.223 21.72 133.184 24.3976 129.354 24.3976ZM126.159 18.2999C126.159 20.955 127.609 22.2826 129.354 22.2826C131.122 22.2826 132.549 20.955 132.549 18.2999C132.549 15.6449 131.122 14.2948 129.354 14.2948C127.609 14.2948 126.159 15.6449 126.159 18.2999Z" fill="currentColor"/>
<path d="M137.117 24.1287V8.06312H139.678V18.6658V24.1287H137.117ZM139.678 18.6658L145.094 12.4958H148.199L143.326 17.7836L148.244 24.1287H145.185L141.202 18.6766L139.678 18.6658Z" fill="currentColor"/>
</svg>

